<?xml version="1.0" encoding="UTF-8" standalone="no"?>
<!-- Created with Inkscape (http://www.inkscape.org/) -->

<svg
   xmlns:dc="http://purl.org/dc/elements/1.1/"
   xmlns:cc="http://creativecommons.org/ns#"
   xmlns:rdf="http://www.w3.org/1999/02/22-rdf-syntax-ns#"
   xmlns:svg="http://www.w3.org/2000/svg"
   xmlns="http://www.w3.org/2000/svg"
   xmlns:sodipodi="http://sodipodi.sourceforge.net/DTD/sodipodi-0.dtd"
   xmlns:inkscape="http://www.inkscape.org/namespaces/inkscape"
   width="60.162823mm"
   height="62.247768mm"
   viewBox="0 0 60.162823 62.247768"
   version="1.1"
   id="svg8"
   inkscape:version="0.92.5 (2060ec1f9f, 2020-04-08)"
   sodipodi:docname="pata.svg">
  <defs
     id="defs2" />
  <sodipodi:namedview
     id="base"
     pagecolor="#ffffff"
     bordercolor="#666666"
     borderopacity="1.0"
     inkscape:pageopacity="0.0"
     inkscape:pageshadow="2"
     inkscape:zoom="0.25"
     inkscape:cx="1346.9503"
     inkscape:cy="175.54493"
     inkscape:document-units="mm"
     inkscape:current-layer="layer1"
     showgrid="false"
     inkscape:window-width="1366"
     inkscape:window-height="703"
     inkscape:window-x="0"
     inkscape:window-y="0"
     inkscape:window-maximized="1" />
  <metadata
     id="metadata5">
    <rdf:RDF>
      <cc:Work
         rdf:about="">
        <dc:format>image/svg+xml</dc:format>
        <dc:type
           rdf:resource="http://purl.org/dc/dcmitype/StillImage" />
        <dc:title></dc:title>
      </cc:Work>
    </rdf:RDF>
  </metadata>
  <g
     inkscape:label="Camada 1"
     inkscape:groupmode="layer"
     id="layer1"
     transform="translate(-81.688311,-106.94197)">
    <g
       id="g3771"
       transform="matrix(0.09900051,-0.06127304,0.05575532,0.09008538,68.547165,129.36955)">
      <g
         id="g3715">
	<path
   id="path3713"
   d="m 465.19,453.459 c 14.749,67.688 -58.752,82.375 -91.127,73.562 -32.375,-8.813 -98.41,-10.281 -98.41,-10.281 0,0 -66.218,1.469 -98.593,10.281 -32.375,8.874 -105.937,-5.875 -91.249,-73.562 14.688,-67.687 79.438,-64.75 97.186,-155.999 17.687,-91.249 92.718,-85.374 92.718,-85.374 0,0 74.847,-5.875 92.535,85.374 17.625,91.249 82.252,88.311 96.94,155.999 z M 343.586,206.15 c 39.841,11.505 83.844,-19.951 98.349,-70.258 C 456.439,85.647 435.937,35.585 396.096,24.08 356.254,12.574 312.252,44.031 297.747,94.338 c -14.504,50.245 5.998,100.307 45.839,111.812 z m 165.117,-18.298 c -38.372,-15.668 -85.496,10.894 -105.264,59.363 -19.768,48.471 -4.712,100.43 33.66,116.035 38.372,15.606 85.496,-10.894 105.264,-59.364 19.768,-48.47 4.713,-100.367 -33.66,-116.034 z M 207.416,206.15 c 39.841,-11.506 60.343,-61.567 45.839,-111.812 -14.504,-50.245 -58.568,-81.702 -98.349,-70.196 -39.78,11.505 -60.343,61.566 -45.839,111.812 14.505,50.245 58.508,81.701 98.349,70.196 z m -93.453,157.1 c 38.373,-15.667 53.428,-67.626 33.66,-116.035 C 127.855,198.806 80.731,172.184 42.359,187.852 3.987,203.519 -11.068,255.478 8.7,303.886 c 19.767,48.47 66.891,75.031 105.263,59.364 z"
   inkscape:connector-curvature="0" />

</g>
      <g
         id="g3717">
</g>
      <g
         id="g3719">
</g>
      <g
         id="g3721">
</g>
      <g
         id="g3723">
</g>
      <g
         id="g3725">
</g>
      <g
         id="g3727">
</g>
      <g
         id="g3729">
</g>
      <g
         id="g3731">
</g>
      <g
         id="g3733">
</g>
      <g
         id="g3735">
</g>
      <g
         id="g3737">
</g>
      <g
         id="g3739">
</g>
      <g
         id="g3741">
</g>
      <g
         id="g3743">
</g>
      <g
         id="g3745">
</g>
    </g>
    <flowRoot
       xml:space="preserve"
       id="flowRoot3789"
       style="font-style:normal;font-weight:normal;font-size:85.33333588px;line-height:1.25;font-family:sans-serif;letter-spacing:0px;word-spacing:0px;fill:#000000;fill-opacity:1;stroke:none"
       transform="scale(0.26458333)"><flowRegion
         id="flowRegion3791"
         style="font-size:85.33333588px"><rect
           id="rect3793"
           width="371.42856"
           height="401.42856"
           x="288.57144"
           y="316.80539"
           style="font-size:85.33333588px" /></flowRegion><flowPara
         id="flowPara3795"></flowPara></flowRoot>    <flowRoot
       xml:space="preserve"
       id="flowRoot3797"
       style="font-style:normal;font-weight:normal;font-size:40px;line-height:1.25;font-family:sans-serif;letter-spacing:0px;word-spacing:0px;fill:#000000;fill-opacity:1;stroke:none"
       transform="matrix(0.3235902,0,0,0.39657396,-23.352148,-81.475881)"><flowRegion
         id="flowRegion3799"><rect
           id="rect3801"
           width="260"
           height="401"
           x="356"
           y="328.51968" /></flowRegion><flowPara
         id="flowPara3803"
         style="font-style:normal;font-variant:normal;font-weight:normal;font-stretch:normal;font-size:266.66665649px;font-family:Karumbi;-inkscape-font-specification:Karumbi" /></flowRoot>    <text
       xml:space="preserve"
       style="font-style:normal;font-weight:normal;font-size:10.58333302px;line-height:1.25;font-family:sans-serif;letter-spacing:0px;word-spacing:0px;fill:#000000;fill-opacity:1;stroke:none;stroke-width:0.26458332"
       x="102.65833"
       y="67.341667"
       id="text3807"><tspan
         sodipodi:role="line"
         id="tspan3805"
         x="102.65833"
         y="76.705437"
         style="stroke-width:0.26458332" /></text>
    <flowRoot
       xml:space="preserve"
       id="flowRoot3809"
       style="font-style:normal;font-weight:normal;font-size:40px;line-height:1.25;font-family:sans-serif;letter-spacing:0px;word-spacing:0px;fill:#000000;fill-opacity:1;stroke:none"
       transform="scale(0.26458333)"><flowRegion
         id="flowRegion3811"><rect
           id="rect3813"
           width="514"
           height="167"
           x="369"
           y="512.51971" /></flowRegion><flowPara
         id="flowPara3815"></flowPara></flowRoot>    <text
       xml:space="preserve"
       style="font-style:normal;font-weight:normal;font-size:10.58333302px;line-height:1.25;font-family:sans-serif;letter-spacing:0px;word-spacing:0px;fill:#000000;fill-opacity:1;stroke:none;stroke-width:0.26458332"
       x="135.99583"
       y="144.33542"
       id="text3819"><tspan
         sodipodi:role="line"
         id="tspan3817"
         x="135.99583"
         y="153.69919"
         style="font-size:35.27777863px;stroke-width:0.26458332" /></text>
  </g>
</svg>
